# xmcd
#
# Track frame offsets:
#	150
#	17029
#	40403
#	59769
#	79863
#
# Disc length: 1312 seconds
#
# Revision: 0
# Processed by: cddbd v1.5.1PL0 Copyright (c) Steve Scherf et al.
# Submitted via: dBpowerAMP V4.0
#
DISCID=3e051e05
DTITLE=Cut Copy - Future Single
DYEAR=2005
DGENRE=Electronic
TTITLE0=Future (Radio Edit)
TTITLE1=Future (Album Version)
TTITLE2=Future (Zongamin Remix)
TTITLE3=Future (!!! Remix)
TTITLE4=Future (Chromeo Remix)
EXTD=
EXTT0=
EXTT1=
EXTT2=
EXTT3=
EXTT4=
PLAYORDER=
